<svg width="25" height="25" fill="none" xmlns="http://www.w3.org/2000/svg"><path d="M19.175 8.756a1.718 1.718 0 0 0-1.21-1.213c-1.066-.285-5.345-.285-5.345-.285s-4.276 0-5.345.285a1.718 1.718 0 0 0-1.21 1.213c-.285 1.07-.285 3.302-.285 3.302s0 2.232.285 3.3c.157.59.62 1.055 1.21 1.214 1.069.286 5.345.286 5.345.286s4.279 0 5.345-.286a1.718 1.718 0 0 0 1.21-1.213c.285-1.07.285-3.301.285-3.301s0-2.232-.285-3.302Z" fill="#000"/><path d="m11.254 14.115 3.553-2.057L11.254 10v4.115Z" fill="#fff"/></svg>