<svg width="144" height="50" fill="none" xmlns="http://www.w3.org/2000/svg"><circle cx="25" cy="25" r="25" fill="#2E1AEB"/><circle cx="25" cy="25" r="20" fill="#422EFF"/><path d="M15 15h5l7.5 10h-5L15 15ZM27.5 25 35 35h-5l-7.5-10h5Z" fill="#FAFAFA"/><path d="M27.5 25 20 35h-5l7.5-10h5ZM26.9 19.133 30 15h5l-4.9 6.533a2 2 0 1 1-3.2-2.4Z" fill="#FAFAFA"/><path d="M75.632 33V16.2h3.648l5.352 10.656 5.28-10.656h3.648V33h-3.072V21.408l-4.68 9.192h-2.424l-4.68-9.192V33h-3.072Zm26.828.288c-1.152 0-2.192-.264-3.12-.792a5.957 5.957 0 0 1-2.184-2.184c-.529-.944-.793-2.032-.793-3.264 0-1.232.272-2.312.817-3.24a5.905 5.905 0 0 1 2.183-2.208c.929-.528 1.969-.792 3.121-.792 1.136 0 2.16.264 3.072.792a5.68 5.68 0 0 1 2.184 2.208c.544.928.816 2.008.816 3.24 0 1.232-.272 2.32-.816 3.264a5.727 5.727 0 0 1-2.184 2.184c-.928.528-1.96.792-3.096.792Zm0-2.664c.8 0 1.496-.296 2.088-.888.592-.608.888-1.504.888-2.688 0-1.184-.296-2.072-.888-2.664-.592-.608-1.28-.912-2.064-.912-.816 0-1.52.304-2.112.912-.576.592-.865 1.48-.865 2.664 0 1.184.288 2.08.865 2.688.592.592 1.288.888 2.088.888ZM113.932 33l-4.368-11.904h3.216l3.024 9 3.024-9h3.216L117.652 33h-3.72Zm11.706-13.752c-.56 0-1.024-.168-1.392-.504-.352-.336-.528-.76-.528-1.272s.176-.928.528-1.248c.368-.336.832-.504 1.392-.504.56 0 1.016.168 1.368.504.368.32.552.736.552 1.248s-.184.936-.552 1.272c-.352.336-.808.504-1.368.504ZM124.102 33V21.096h3.072V33h-3.072Zm12.062.288c-1.2 0-2.264-.256-3.192-.768a5.559 5.559 0 0 1-2.184-2.16c-.528-.928-.792-2-.792-3.216 0-1.232.256-2.328.768-3.288a5.687 5.687 0 0 1 2.16-2.232c.928-.544 2.016-.816 3.264-.816 1.168 0 2.2.256 3.096.768a5.407 5.407 0 0 1 2.088 2.112c.512.88.768 1.864.768 2.952 0 .176-.008.36-.024.552 0 .192-.008.392-.024.6h-9.048c.064.928.384 1.656.96 2.184.592.528 1.304.792 2.136.792.624 0 1.144-.136 1.56-.408.432-.288.752-.656.96-1.104h3.12a5.68 5.68 0 0 1-1.128 2.064 5.423 5.423 0 0 1-1.92 1.44c-.752.352-1.608.528-2.568.528Zm.024-9.984a3.23 3.23 0 0 0-1.992.648c-.576.416-.944 1.056-1.104 1.92h5.928c-.048-.784-.336-1.408-.864-1.872-.528-.464-1.184-.696-1.968-.696Z" fill="#fff"/></svg>